<?xml version="1.0" standalone="no"?><!DOCTYPE svg PUBLIC "-//W3C//DTD SVG 1.1//EN" "http://www.w3.org/Graphics/SVG/1.1/DTD/svg11.dtd"><svg t="1719056646073" class="icon" viewBox="0 0 1024 1024" version="1.1" xmlns="http://www.w3.org/2000/svg" p-id="6445" xmlns:xlink="http://www.w3.org/1999/xlink" width="200" height="200"><path d="M101.66272 103.80288c109.96736-109.9776 288.26624-109.9776 398.2336 0l108.61568 108.61568c109.9776 109.96736 109.9776 288.26624 0 398.2336-109.9776 109.9776-288.26624 109.9776-398.2336 0L101.65248 502.04672c-109.9776-109.9776-109.9776-288.27648 0-398.24384z m36.1984 36.1984c-89.07776 89.088-89.96864 232.96-2.6624 323.1232l2.6624 2.7136L246.4768 574.464c89.96864 89.97888 235.85792 89.97888 325.8368 0 89.06752-89.088 89.9584-232.94976 2.6624-323.1232l-2.6624-2.7136-108.61568-108.61568c-89.97888-89.96864-235.85792-89.96864-325.8368 0z" fill="#ffffff" p-id="6446"></path><path d="M137.0112 130.56l108.61568 108.60544 79.64672-79.64672-97.7408-97.75104 7.23968-7.23968 97.7408 97.75104L404.93056 79.872l7.23968 7.23968-72.41728 72.3968 104.99072 105.00096 72.41728-72.40704 7.23968 7.23968-72.40704 72.40704L555.3152 375.0912l90.48064-89.10848 7.18848 7.29088-90.4192 89.06752 91.86304 91.8528-7.23968 7.24992-91.92448-91.92448-80.24064 79.0528 103.66976 103.66976-7.23968 7.23968-103.7312-103.7312-87.0912 85.79072 93.2864 93.2864-7.22944 7.23968-93.35808-93.34784-73.43104 72.33536-7.18848-7.29088 73.37984-72.28416-101.91872-101.91872-65.5872 65.5872-7.23968-7.23968 65.57696-65.5872-104.99072-104.99072-65.57696 65.5872-7.23968-7.23968 65.57696-65.5872-97.67936-97.6896 7.23968-7.23968 97.6896 97.6896 86.4256-86.44608-108.5952-108.60544 7.23968-7.23968z m307.73248 148.4288l-79.64672 79.64672 102.68672 102.68672 80.25088-79.04256-103.29088-103.29088z m-86.8864 86.8864l-86.43584 86.44608 101.98016 101.98016 87.0912-85.79072L357.85728 365.8752z m79.64672-94.12608L332.51328 166.7584l-79.64672 79.64672 104.99072 104.99072 79.64672-79.64672zM245.62688 253.6448l-86.43584 86.44608 104.99072 104.99072 86.43584-86.44608L245.62688 253.6448zM596.04992 596.55168a25.6 25.6 0 0 1 34.84672-1.73056l1.35168 1.2288 378.88 368.64a25.6 25.6 0 0 1-34.34496 37.92896l-1.35168-1.2288-378.88-368.64a25.6 25.6 0 0 1-0.50176-36.1984z" fill="#ffffff" p-id="6447"></path></svg>